<?xml version="1.0" encoding="utf-8"?>
<!-- Generator: Adobe Illustrator 27.5.0, SVG Export Plug-In . SVG Version: 6.00 Build 0)  -->
<svg version="1.1" id="Capa_1" xmlns="http://www.w3.org/2000/svg" xmlns:xlink="http://www.w3.org/1999/xlink" x="0px" y="0px"
	 viewBox="0 0 2166 2078" style="enable-background:new 0 0 2166 2078;" xml:space="preserve">
<g>
	<path style="fill:#E73753;" d="M1676.253,207.504c-4.35-1.599-8.733-3.104-13.129-4.564c-1.186-0.395-2.375-0.778-3.563-1.163
		c-3.741-1.21-7.497-2.373-11.268-3.484c-0.736-0.217-1.467-0.448-2.205-0.661c-4.424-1.278-8.869-2.482-13.329-3.626
		c-1.084-0.279-2.171-0.542-3.256-0.811c-3.671-0.914-7.353-1.784-11.045-2.609c-1.027-0.228-2.051-0.469-3.08-0.691
		c-4.523-0.977-9.058-1.894-13.609-2.738c-0.787-0.146-1.579-0.276-2.367-0.418c-3.903-0.704-7.816-1.359-11.736-1.966
		c-1.12-0.173-2.24-0.349-3.36-0.514c-4.651-0.686-9.309-1.326-13.98-1.878c-0.077-0.009-0.153-0.015-0.23-0.024
		c-4.581-0.54-9.173-0.993-13.768-1.403c-1.099-0.099-2.199-0.191-3.299-0.282c-4.323-0.356-8.651-0.667-12.983-0.911
		c-0.375-0.021-0.749-0.051-1.124-0.07c-4.75-0.256-9.506-0.432-14.263-0.555c-0.957-0.024-1.913-0.037-2.869-0.057
		c-4.109-0.081-8.22-0.115-12.332-0.097c-0.748,0.003-1.495-0.003-2.244,0.005c-4.786,0.042-9.574,0.149-14.359,0.325
		c-0.658,0.025-1.316,0.062-1.973,0.088c-4.21,0.172-8.419,0.397-12.623,0.671c-0.898,0.06-1.796,0.114-2.693,0.176
		c-4.836,0.341-9.669,0.735-14.494,1.211c-0.026,0.003-0.051,0.006-0.078,0.009c-4.698,0.464-9.39,1.011-14.073,1.603
		c-0.935,0.118-1.867,0.237-2.801,0.361c-4.707,0.62-9.409,1.286-14.097,2.034c0.042,0.002,0.083,0.003,0.124,0.005
		c-147.532,23.513-284.345,110.02-347.265,245.037c-24.511-52.598-60.236-97.837-103.439-134.861
		c-5.401-4.629-10.919-9.127-16.545-13.497c-5.627-4.369-11.363-8.608-17.202-12.716c-5.839-4.108-11.779-8.083-17.816-11.926
		c-6.035-3.842-12.167-7.552-18.385-11.125c-12.437-7.149-25.225-13.755-38.305-19.81c-3.27-1.512-6.559-2.992-9.864-4.436
		c-9.917-4.332-19.991-8.35-30.196-12.049c-10.206-3.699-20.542-7.081-30.985-10.135c-48.737-14.258-99.806-21.444-150.703-20.982
		c-13.633,0.124-27.254,0.797-40.814,2.028c-40.682,3.698-80.821,12.432-119.119,26.505
		c-97.286,35.749-185.005,99.891-252.309,180.609c-4.342,5.207-8.599,10.483-12.768,15.826c-4.17,5.343-8.251,10.751-12.242,16.221
		c-9.976,13.678-19.384,27.746-28.18,42.156c-7.037,11.528-13.681,23.276-19.91,35.216c-7.785,14.925-14.921,30.153-21.362,45.633
		c-2.576,6.193-5.041,12.426-7.392,18.695c-15.281,40.754-25.742,83.082-30.579,126.112c-0.807,7.182-1.458,14.382-1.949,21.598
		c-0.735,10.824-1.111,21.684-1.113,32.564c-0.025,136.246,38.935,264.105,101.303,381.53h-0.001
		c0.005,0.009,0.01,0.018,0.014,0.025c205.562,387.004,665.609,660.53,824.562,746.451c0.111,0.061,0.224,0.122,0.335,0.182
		c1.42,0.767,2.816,1.52,4.187,2.257c0.128,0.068,0.255,0.137,0.382,0.206c5.564,2.989,10.716,5.728,15.437,8.211
		c0.242,0.128,0.485,0.257,0.724,0.382c1.038,0.546,2.055,1.08,3.05,1.6c0.242,0.127,0.477,0.251,0.717,0.376
		c4.228,2.211,8.047,4.187,11.445,5.93c0.347,0.179,0.692,0.357,1.03,0.53c0.645,0.331,1.276,0.653,1.888,0.965
		c0.323,0.166,0.634,0.324,0.948,0.483c0.616,0.315,1.232,0.628,1.812,0.922c0.15,0.076,0.285,0.145,0.432,0.219
		c1.183,0.6,2.281,1.155,3.308,1.672c0.239,0.121,0.491,0.248,0.722,0.364c0.418,0.21,0.805,0.404,1.194,0.598
		c0.318,0.161,0.631,0.316,0.931,0.467c0.337,0.169,0.664,0.332,0.977,0.488c0.304,0.151,0.586,0.291,0.866,0.431
		c0.249,0.124,0.506,0.251,0.737,0.366c0.291,0.145,0.55,0.273,0.811,0.401c0.513,0.255,0.98,0.484,1.376,0.678
		c0.064,0.031,0.137,0.067,0.197,0.097c0.225,0.111,0.413,0.203,0.596,0.292c0.108,0.052,0.206,0.101,0.3,0.146
		c0.115,0.057,0.219,0.107,0.312,0.152c0.373,0.182,0.58,0.282,0.58,0.282s981.298-472.859,981.175-1156.703
		C2064.015,510.023,1894.124,287.563,1676.253,207.504z"/>
	<path style="fill:#DE2F4E;" d="M386.705,1320.744c46.991,44.511,94.757,88.548,144.502,129.978
		c55.427,46.161,113.57,89.065,173.832,128.699c56.003,36.833,113.846,73.418,175.563,99.95
		c29.364,12.624,60.034,22.893,91.764,27.421c28.05,4.003,56.574,2.625,84.54-1.438c58.455-8.496,114.468-29.969,166.712-57.035
		c108.549-56.232,204.211-136.652,290.338-222.659c89.366-89.244,172.478-185.716,240.476-292.378
		c68.994-108.226,123.345-228.939,139.827-357.158c15.271-118.795-5.21-239.881-63.078-345.117
		c-53.237-96.818-137.297-176.224-241.215-215.789c-50.403-19.191-105.502-28.459-159.946-29.754
		c4.688-0.749,9.39-1.414,14.097-2.034c-152.811,20.145-296.335,107.805-361.238,247.076
		c-24.511-52.598-60.236-97.837-103.439-134.861c-5.401-4.629-10.919-9.127-16.545-13.497c-5.627-4.369-11.363-8.608-17.202-12.716
		c-5.839-4.108-11.779-8.083-17.816-11.926c-6.035-3.842-12.167-7.552-18.385-11.125c-12.437-7.149-25.225-13.755-38.305-19.81
		c-3.27-1.512-6.559-2.992-9.864-4.436c-9.917-4.332-19.991-8.35-30.196-12.049c-10.206-3.699-20.542-7.081-30.985-10.135
		c-48.737-14.258-99.806-21.444-150.703-20.982c-54.532,0.495-108.868,9.77-159.932,28.534
		c-200.85,73.805-360.924,268.628-384.743,480.469c-0.807,7.182-1.458,14.382-1.949,21.598c-0.735,10.824-1.111,21.684-1.113,32.564
		c-0.025,136.246,38.935,264.105,101.303,381.53c15.849,20.133,32.295,39.765,49.126,58.899
		C294.621,1230.862,340.02,1276.522,386.705,1320.744z M203.729,573.573c32.624-131.978,123.3-241.793,240.523-308.58
		c57.947-33.014,120.139-54.586,187.134-57.488c63.606-2.754,127.499,9.934,186.05,34.649
		c53.292,22.493,102.386,55.084,143.57,95.723c41.791,41.242,60.744,94.333,100.541,136.524c4.505,4.776,9.564,9.605,15.989,10.945
		c10.765,2.246,20.653-5.847,28.848-13.177c71.91-64.326,159.691-113.774,255.177-127.598
		c95.485-13.824,198.794,11.27,268.518,77.958c157.202,150.357,126.94,413.658,40.297,590.55c-1.859,3.794-3.747,7.577-5.662,11.339
		c-81.875,160.875-213.944,291.12-353.296,406.224c-96.95,80.077-210.851,158.256-336.233,148.695
		c-55.578-4.239-108.411-25.769-157.97-51.277c-208.79-107.474-372.945-287.632-497.678-486.593
		C232.569,902.745,162.667,739.683,203.729,573.573z"/>
	<path style="fill:#CD2346;" d="M1676.253,207.504c-4.35-1.599-8.733-3.104-13.129-4.564c-1.186-0.395-2.375-0.778-3.563-1.163
		c-3.741-1.21-7.497-2.373-11.268-3.484c-0.736-0.217-1.467-0.448-2.205-0.661c-4.424-1.278-8.869-2.482-13.329-3.626
		c-1.084-0.279-2.171-0.542-3.256-0.811c-3.671-0.914-7.353-1.784-11.045-2.609c-1.027-0.228-2.051-0.469-3.08-0.691
		c-4.523-0.977-9.058-1.894-13.609-2.738c-0.787-0.146-1.579-0.276-2.367-0.418c-3.903-0.704-7.816-1.359-11.736-1.966
		c-1.12-0.173-2.24-0.349-3.36-0.514c-4.651-0.686-9.309-1.326-13.98-1.878c-0.077-0.009-0.153-0.015-0.23-0.024
		c-4.581-0.54-9.173-0.993-13.768-1.403c-1.099-0.099-2.199-0.191-3.299-0.282c-4.323-0.356-8.651-0.667-12.983-0.911
		c-0.375-0.021-0.749-0.051-1.124-0.07c-4.75-0.256-9.506-0.432-14.263-0.555c-0.957-0.024-1.913-0.037-2.869-0.057
		c-4.109-0.081-8.22-0.115-12.332-0.097c-0.748,0.003-1.495-0.003-2.244,0.005c-4.786,0.042-9.574,0.149-14.359,0.325
		c-0.658,0.025-1.316,0.062-1.973,0.088c-4.21,0.172-8.419,0.397-12.623,0.671c-0.898,0.06-1.796,0.114-2.693,0.176
		c-4.836,0.341-9.669,0.735-14.494,1.211c-0.026,0.003-0.051,0.006-0.078,0.009c-4.698,0.464-9.39,1.011-14.073,1.603
		c-0.935,0.118-1.867,0.237-2.801,0.361c-4.707,0.62-9.409,1.286-14.097,2.034c54.444,1.295,109.542,10.563,159.946,29.754
		c103.918,39.565,187.978,118.971,241.215,215.789c57.867,105.236,78.348,226.322,63.078,345.117
		c-16.482,128.218-70.833,248.932-139.827,357.158c-67.998,106.663-151.111,203.134-240.476,292.378
		c-86.127,86.007-181.789,166.427-290.338,222.659c-52.244,27.066-108.256,48.539-166.712,57.035
		c-27.966,4.063-56.491,5.441-84.54,1.438c-31.731-4.529-62.401-14.797-91.764-27.421c-61.717-26.532-119.56-63.117-175.563-99.95
		c-60.262-39.634-118.405-82.538-173.832-128.699c-49.745-41.43-97.511-85.467-144.502-129.978
		c-46.685-44.222-92.084-89.882-134.569-138.18c-16.832-19.134-33.277-38.766-49.126-58.899h-0.001
		c0.005,0.009,0.01,0.018,0.014,0.025c205.548,386.978,665.588,660.508,824.562,746.451c0.111,0.061,0.224,0.122,0.335,0.182
		c1.42,0.767,2.816,1.52,4.187,2.257c0.128,0.068,0.255,0.137,0.382,0.206c5.564,2.989,10.716,5.726,15.437,8.211
		c0.242,0.128,0.485,0.257,0.724,0.382c1.038,0.546,2.055,1.08,3.05,1.6c0.242,0.127,0.477,0.251,0.717,0.376
		c4.228,2.211,8.047,4.187,11.445,5.93c0.347,0.179,0.692,0.357,1.03,0.53c0.645,0.331,1.276,0.653,1.888,0.965
		c0.323,0.166,0.634,0.324,0.948,0.483c0.616,0.315,1.232,0.628,1.812,0.922c0.15,0.076,0.285,0.145,0.432,0.219
		c1.183,0.6,2.281,1.155,3.308,1.672c0.239,0.121,0.491,0.248,0.722,0.364c0.418,0.21,0.805,0.404,1.194,0.598
		c0.318,0.161,0.631,0.316,0.931,0.467c0.337,0.169,0.664,0.332,0.977,0.488c0.304,0.151,0.586,0.291,0.866,0.431
		c0.249,0.124,0.506,0.251,0.737,0.366c0.291,0.145,0.55,0.273,0.811,0.401c0.513,0.255,0.98,0.484,1.376,0.678
		c0.064,0.031,0.137,0.067,0.197,0.097c0.225,0.111,0.413,0.203,0.596,0.292c0.108,0.052,0.206,0.101,0.3,0.146
		c0.115,0.057,0.219,0.107,0.312,0.152c0.373,0.182,0.58,0.282,0.58,0.282s981.298-472.859,981.175-1156.703
		C2064.015,510.023,1894.124,287.563,1676.253,207.504z"/>
	<path style="fill:#E9425A;" d="M1651.558,691.312c-5.082-51.88-19.266-104.112-50.032-146.195
		c-54.857-75.032-152.098-103.226-241.458-101.46c-102.987,2.037-163.447,79.098-252.606,118.837
		c-21.328,9.505-45.621,16.27-67.852,9.129c-20.415-6.557-35.458-23.621-48.806-40.404
		c-79.47-99.915-139.262-197.58-277.015-217.839c-94.884-13.952-193.82,14.048-272.014,69.576
		c-27.787,19.73-53.371,43.026-72.954,70.915c-83.128,118.395-77.693,283.101-26.576,412.42
		c41.773,105.678,111.976,197.747,188.325,281.91c56.553,62.339,117.315,121.468,185.164,171.093
		c11.997,8.774,24.216,17.252,36.673,25.398c57.659,37.704,121.813,68.547,190.413,74.898
		c131.602,12.186,253.223-65.814,358.874-145.223c134.136-100.815,267.916-217.236,324.288-375.283
		C1649.615,832.826,1658.416,761.323,1651.558,691.312z"/>
	<path style="fill:#EC6778;" d="M423.672,899.523c16.14,7.95,36.011,2.243,49.697-9.868c13.684-12.108,22.21-29.554,28.932-47.122
		c16.033-41.895,23.968-87.397,44.504-126.99c25.139-48.467,67.767-84.668,114.6-108.542
		c57.215-29.166,128.791-58.914,125.633-141.527c-1.512-39.536-25.095-77.21-58.736-93.829
		c-27.766-13.717-59.839-13.353-90.129-8.752c-81.076,12.314-165.542,58.58-213.64,131.921
		c-6.598,10.059-12.511,20.632-17.638,31.693c-46.84,101.069-57.211,231.862-12.308,335.607
		C401.092,877.147,409.586,892.584,423.672,899.523z"/>
	<path style="fill:#EC6778;" d="M1225.566,626.708c14.046,2.249,28.371,0.095,42.495-1.599c30.014-3.598,60.547-5.093,90.385-0.242
		c83.468,13.565,155.609,80.9,174.886,163.238c3.061,13.075,5.064,26.854,12.5,38.038c7.435,11.181,22.512,18.797,34.538,12.822
		c7.858-3.902,12.279-12.321,15.75-20.378c39.407-91.484,16.562-206.207-54.882-275.613
		c-42.68-41.463-101.073-65.098-160.202-68.478c-67.688-3.866-117.283,17.988-165.309,64.257
		c-17.941,17.284-35.153,42.883-24.397,65.354C1197.47,616.938,1211.521,624.456,1225.566,626.708z"/>
</g>
</svg>
